<svg width="20" height="20" viewBox="0 0 20 20" fill="none" xmlns="http://www.w3.org/2000/svg">
<path d="M17.9553 13.3844C17.7209 13.6188 17.403 13.7504 17.0716 13.7504C16.7401 13.7504 16.4222 13.6188 16.1878 13.3844L10.0003 7.19692L3.81281 13.3844C3.57705 13.6121 3.2613 13.7381 2.93355 13.7353C2.60581 13.7324 2.29229 13.601 2.06053 13.3692C1.82877 13.1374 1.69731 12.8239 1.69446 12.4962C1.69162 12.1684 1.81761 11.8527 2.04531 11.6169L9.11656 4.54567C9.35097 4.31133 9.66885 4.17969 10.0003 4.17969C10.3318 4.17969 10.6496 4.31133 10.8841 4.54567L17.9553 11.6169C18.1896 11.8513 18.3213 12.1692 18.3213 12.5007C18.3213 12.8321 18.1896 13.15 17.9553 13.3844Z" fill="black"/>
</svg>
