<svg width="165" height="159" viewBox="0 0 165 159" fill="none" xmlns="http://www.w3.org/2000/svg">
<g opacity="0.1" clip-path="url(#clip0_242_7676)">
<path d="M43.1436 10.4916C54.7444 3.83613 68.2402 0 82.6141 0C110.992 0 135.858 14.9286 149.816 37.2983C147.181 37.437 144.639 37.4832 142.051 37.3907C141.265 37.3907 140.48 37.3445 139.648 37.3445L137.291 37.2059C136.505 37.2059 135.719 37.1596 134.933 37.0672C134.148 36.9748 133.362 36.9286 132.576 36.8823C129.433 36.5126 126.337 36.1891 123.286 35.5882C117.139 34.5714 111.038 33.1386 105.123 31.105C102.165 30.042 99.2066 28.7479 96.2024 27.5462C93.1982 26.2983 90.0553 25.0966 86.9587 23.8487C83.8158 22.6008 80.673 21.3529 77.5763 20.0588C74.4335 18.7647 71.3368 17.4706 68.1477 16.3613C67.7318 16.2227 67.362 16.0378 66.9461 15.8992C66.5301 15.7605 66.1604 15.6218 65.7444 15.4832C64.9587 15.2059 64.1267 14.9286 63.341 14.605C62.5553 14.3277 61.7234 14.0966 60.8914 13.7731C60.0595 13.4958 59.2738 13.1723 58.4419 12.9412C56.778 12.4328 55.1141 11.9244 53.4041 11.6008C52.5259 11.416 51.694 11.2311 50.8158 11.0924C49.9377 11 49.0595 10.8613 48.2276 10.7689C47.3494 10.6302 46.4713 10.6302 45.5931 10.584C44.715 10.4916 43.9293 10.4916 43.1436 10.4916Z" fill="#FC9C73"/>
<path d="M9.59002 51.3947C9.17405 51.5334 8.71186 51.672 8.2959 51.8107C12.7791 39.6552 20.174 28.8863 29.6026 20.3821C31.0816 20.151 32.5144 19.8275 33.9934 19.6426C34.7791 19.5502 35.5186 19.4115 36.3043 19.3191C37.09 19.2729 37.8757 19.1804 38.6152 19.088L39.7707 18.9493C40.1866 18.9493 40.5564 18.9031 40.9261 18.8569C41.7119 18.8107 42.4976 18.7645 43.2371 18.672C44.8085 18.5796 46.3799 18.3947 47.9051 18.3023C49.4766 18.2098 51.048 18.025 52.6656 17.9787C54.2833 17.8401 55.8547 17.8863 57.4724 17.8401C58.3043 17.8401 59.09 17.8863 59.8757 17.9325C60.6614 17.9787 61.4934 18.025 62.2791 18.1636C63.8505 18.4409 65.5144 18.6258 67.0396 19.1342C73.3253 20.7981 79.0102 24.3107 84.3715 28.193C87.0522 30.1342 89.7328 32.1678 92.5984 34.0166C95.4177 35.8653 98.4681 37.5292 101.611 39.0544C107.943 42.0123 114.691 44.3695 121.67 45.2014L124.304 45.525C125.182 45.5712 126.061 45.6174 126.939 45.6636C128.695 45.8023 130.451 45.756 132.208 45.7098C133.964 45.6174 135.72 45.5712 137.43 45.3401L140.019 45.0166C140.897 44.8779 141.729 44.7392 142.607 44.5544C143.485 44.4157 144.317 44.2308 145.149 43.9997L147.645 43.3989C149.216 42.8905 150.834 42.4745 152.359 41.8737C156.01 48.714 158.691 56.1552 160.216 64.0123C158.044 64.2896 155.871 64.567 153.699 64.7518C152.636 64.8443 151.619 64.9367 150.556 65.0754L147.413 65.2602C146.35 65.3527 145.334 65.4451 144.271 65.4451C143.208 65.4913 142.191 65.5375 141.128 65.5838C136.968 65.63 132.855 65.7224 128.695 65.5376C120.422 65.3065 112.195 64.7056 104.014 63.2728C99.9471 62.5333 95.8337 61.5165 91.674 60.5922C87.5144 59.6678 83.216 58.7434 78.9177 57.8191C74.6194 56.8947 70.3211 55.9703 66.0228 54.9997C61.7244 54.0292 57.4261 53.0123 53.0816 52.1804C52.527 52.088 52.0186 51.9493 51.464 51.8107C50.9093 51.672 50.3547 51.6258 49.8463 51.4871C48.7371 51.256 47.674 51.0712 46.5648 50.8401C45.4556 50.609 44.3463 50.4703 43.2833 50.2392C42.174 50.0544 41.0648 49.7771 39.9556 49.6384C37.7371 49.3149 35.4724 48.9451 33.2077 48.8065C32.0984 48.714 30.9429 48.6216 29.7875 48.5754C28.632 48.5754 27.5228 48.5754 26.3673 48.5754L24.6572 48.6216L22.9472 48.7602C21.7917 48.8527 20.6824 48.9913 19.527 49.13C18.4177 49.2687 17.2623 49.546 16.153 49.7308C15.0438 49.9619 13.9346 50.193 12.8253 50.5165C11.7623 50.7939 10.6993 51.0712 9.59002 51.3947Z" fill="#FC9C73"/>
<path d="M134.888 133.109C136.506 133.386 138.17 133.571 139.834 133.849C125.413 148.916 105.124 158.298 82.6152 158.298C66.0689 158.298 50.7706 153.214 38.0605 144.571C40.7874 144.386 43.5143 143.97 46.195 143.416C50.1236 142.63 53.9135 141.521 57.6572 140.55C65.1446 138.517 72.5857 136.529 80.1193 135.143C83.863 134.449 87.6067 133.849 91.258 133.294C93.1067 132.97 94.9093 132.832 96.7118 132.554C98.5143 132.277 100.363 132.138 102.166 131.954C109.468 131.399 116.724 131.63 123.981 132.092C125.783 132.138 127.586 132.37 129.434 132.508C130.359 132.554 131.237 132.693 132.161 132.786C133.039 132.924 133.964 133.017 134.888 133.109Z" fill="#FC9C73"/>
<path d="M157.441 104.962C154.714 112.819 150.832 120.122 145.933 126.639C139.185 124.051 132.114 122.387 124.857 121.601C116.862 120.769 108.773 121.324 100.916 122.71L98.0044 123.311C97.0339 123.496 96.0633 123.681 95.0927 123.958C93.1515 124.466 91.2103 124.929 89.3616 125.622C85.6179 126.87 82.0128 128.441 78.5002 130.013C74.9414 131.584 71.475 133.156 67.87 134.45C64.3112 135.744 60.6599 136.807 56.9624 137.454C53.265 138.101 49.475 138.286 45.7776 138.009C44.8532 137.962 43.9288 137.916 43.0045 137.777C42.0801 137.639 41.2019 137.593 40.2776 137.408C39.3532 137.223 38.475 137.13 37.5969 136.945C36.7187 136.853 35.7944 136.576 34.9162 136.437C32.0045 135.882 29.0927 135.328 26.2272 134.681C17.0759 125.437 10.2356 113.929 6.53809 101.08C8.80279 102.282 11.1599 103.345 13.5633 104.315C20.912 107.319 28.723 109.261 36.6725 110.046C44.6221 110.878 52.6641 110.37 60.5213 108.983L63.433 108.429C64.4036 108.244 65.3742 108.059 66.3448 107.782C68.286 107.273 70.1809 106.811 72.0759 106.164C75.8196 104.916 79.4246 103.391 82.9834 101.866C90.0549 98.769 97.1263 95.8573 104.567 94.5169C108.265 93.8699 112.055 93.6388 115.752 93.8699C116.677 93.9161 117.601 93.9623 118.525 94.101C119.45 94.1934 120.374 94.2858 121.252 94.4245C122.177 94.5631 123.055 94.7018 123.979 94.8405C124.857 94.9329 125.782 95.164 126.66 95.3026C130.219 95.9497 133.731 96.643 137.244 97.4749C138.122 97.6598 139 97.9371 139.832 98.1682C140.71 98.3993 141.588 98.6304 142.42 98.9077L145.009 99.7396C145.841 100.063 146.719 100.34 147.551 100.664C150.878 101.958 154.16 103.345 157.441 104.962Z" fill="#FC9C73"/>
<path d="M161.74 79.1722C161.74 86.3361 160.769 93.3151 158.967 99.9243C156.332 97.7983 153.42 95.9033 150.416 94.2857C146.857 92.3445 143.114 90.9117 139.231 89.7563C135.395 88.5546 131.328 87.9538 127.307 87.8151C123.286 87.6764 119.219 88.1848 115.29 88.9243C111.362 89.6638 107.572 90.7269 103.828 91.6975C96.3405 93.6848 88.9456 95.7185 81.412 97.1512C77.6683 97.8907 73.9246 98.5378 70.2733 99.0924C68.4246 99.4159 66.6221 99.6008 64.7733 99.8781C62.9708 100.155 61.1221 100.294 59.3195 100.479C52.017 101.08 44.6683 100.849 37.412 100.387C35.5632 100.34 33.7607 100.063 31.9582 99.9243C31.0338 99.8781 30.1557 99.7395 29.2313 99.6008L26.5506 99.3697C24.7481 99.0462 22.8994 98.8613 21.0969 98.5378C19.2943 98.168 17.4456 97.9369 15.6431 97.521C12.0843 96.7815 8.57166 95.9033 5.01283 94.9327C3.99603 89.8487 3.44141 84.5798 3.44141 79.2185C3.44141 73.626 4.04225 68.126 5.15149 62.8571C5.47502 62.7647 5.79855 62.6723 6.12208 62.5798C7.09267 62.2563 8.15569 62.1176 9.12628 61.8403C10.1431 61.6092 11.1137 61.2857 12.1305 61.1008C13.1473 60.916 14.1641 60.6849 15.1809 60.4538C16.1977 60.1765 17.2145 60.0378 18.2313 59.8529C19.2481 59.6681 20.2649 59.4832 21.2817 59.2521C23.3153 58.9286 25.349 58.4202 27.3826 58.0966C28.3994 57.9118 29.4162 57.6807 30.4792 57.4958C31.496 57.2647 32.559 57.1723 33.5758 56.9412C35.6557 56.5252 37.7355 56.2941 39.8616 56.0168C40.9246 55.8319 41.9876 55.8319 43.0506 55.7395C44.1137 55.6933 45.1767 55.6008 46.2397 55.6008C48.3658 55.647 50.4918 55.6008 52.6179 55.9244C56.87 56.3403 61.0296 57.4496 65.0968 58.8361C69.1641 60.2227 73.0926 62.0252 77.0674 63.8739C80.996 65.7689 84.9246 67.7101 88.9918 69.4664C93.059 71.2227 97.3111 72.6554 101.702 73.9033C110.437 76.3529 119.588 77.9706 128.693 77.8319C129.849 77.7857 130.958 77.8319 132.114 77.7395C133.269 77.6933 134.378 77.6008 135.534 77.5084C137.798 77.3697 140.063 77.0462 142.328 76.7227C144.593 76.3067 146.811 75.9832 149.03 75.4286L152.311 74.6428C153.42 74.3193 154.483 74.042 155.593 73.7185L157.21 73.2563L158.828 72.7017L161.462 71.7773C161.601 74.0882 161.74 76.584 161.74 79.1722Z" fill="#FC9C73"/>
</g>
<defs>
<clipPath id="clip0_242_7676">
<rect width="165.181" height="158.298" fill="white"/>
</clipPath>
</defs>
</svg>
