<svg width="50" height="50" viewBox="0 0 50 50" fill="none" xmlns="http://www.w3.org/2000/svg">
<rect width="50" height="50" rx="25" fill="#FD9E78"/>
<path d="M25.0006 20.4121C23.7816 20.4121 22.6125 20.8956 21.7505 21.7561C20.8885 22.6166 20.4043 23.7838 20.4043 25.0008C20.4043 26.2177 20.8885 27.3849 21.7505 28.2454C22.6125 29.106 23.7816 29.5894 25.0006 29.5894C26.2196 29.5894 27.3887 29.106 28.2507 28.2454C29.1126 27.3849 29.5969 26.2177 29.5969 25.0008C29.5969 23.7838 29.1126 22.6166 28.2507 21.7561C27.3887 20.8956 26.2196 20.4121 25.0006 20.4121Z" fill="white"/>
<path fill-rule="evenodd" clip-rule="evenodd" d="M17.6035 12.408C22.5195 11.864 27.4806 11.864 32.3965 12.408C35.0822 12.7073 37.2474 14.8181 37.5628 17.5092C38.1457 22.4856 38.1457 27.5129 37.5628 32.4893C37.2474 35.1804 35.0822 37.2912 32.3979 37.5919C27.4815 38.136 22.5199 38.136 17.6035 37.5919C14.9179 37.2912 12.7527 35.1804 12.4373 32.4907C11.8542 27.5138 11.8542 22.4861 12.4373 17.5092C12.7527 14.8181 14.9179 12.7073 17.6035 12.408ZM32.0713 16.5279C31.6962 16.5279 31.3365 16.6766 31.0712 16.9414C30.806 17.2062 30.657 17.5653 30.657 17.9398C30.657 18.3142 30.806 18.6734 31.0712 18.9381C31.3365 19.2029 31.6962 19.3517 32.0713 19.3517C32.4463 19.3517 32.8061 19.2029 33.0713 18.9381C33.3365 18.6734 33.4855 18.3142 33.4855 17.9398C33.4855 17.5653 33.3365 17.2062 33.0713 16.9414C32.8061 16.6766 32.4463 16.5279 32.0713 16.5279ZM18.2824 24.9992C18.2824 23.2206 18.9901 21.5148 20.2499 20.257C21.5097 18.9993 23.2184 18.2928 25 18.2928C26.7817 18.2928 28.4903 18.9993 29.7501 20.257C31.0099 21.5148 31.7177 23.2206 31.7177 24.9992C31.7177 26.7779 31.0099 28.4837 29.7501 29.7414C28.4903 30.9991 26.7817 31.7057 25 31.7057C23.2184 31.7057 21.5097 30.9991 20.2499 29.7414C18.9901 28.4837 18.2824 26.7779 18.2824 24.9992Z" fill="white"/>
</svg>
