<svg width="13" height="13" viewBox="0 0 13 13" fill="none" xmlns="http://www.w3.org/2000/svg">
<path d="M11.6713 8.69987C11.5189 8.85219 11.3123 8.93776 11.0969 8.93776C10.8814 8.93776 10.6748 8.85219 10.5224 8.69987L6.50054 4.678L2.47866 8.69987C2.32543 8.84788 2.12019 8.92977 1.90715 8.92792C1.69412 8.92607 1.49033 8.84062 1.33969 8.68998C1.18904 8.53933 1.10359 8.33555 1.10174 8.12251C1.09989 7.90948 1.18179 7.70424 1.32979 7.551L5.9261 2.95469C6.07847 2.80237 6.28509 2.7168 6.50054 2.7168C6.71599 2.7168 6.92261 2.80237 7.07498 2.95469L11.6713 7.551C11.8236 7.70337 11.9092 7.90999 11.9092 8.12544C11.9092 8.34088 11.8236 8.54751 11.6713 8.69987Z" fill="black"/>
</svg>
