<svg width="50" height="50" viewBox="0 0 50 50" fill="none" xmlns="http://www.w3.org/2000/svg">
<rect width="50" height="50" rx="25" fill="#FD9E78"/>
<path d="M36.2997 14.285C36.0618 14.3431 12.6521 23.2972 12.391 23.4307C11.8687 23.6976 11.8687 24.6493 12.3968 24.9221C12.4838 24.9685 13.9114 25.4676 15.5653 26.0247L18.5655 27.046L25.6568 22.7111C29.5507 20.326 32.7946 18.3762 32.8643 18.3762C32.9397 18.3704 32.9803 18.4052 32.9803 18.4865C32.9803 18.5619 31.309 20.1403 27.7169 23.4481C24.8212 26.1117 22.3955 28.3459 22.3317 28.4097C22.2272 28.52 22.1982 28.7463 22.0125 31.3055C21.9022 32.8375 21.8094 34.1374 21.8094 34.1954C21.8094 34.3811 22.0705 34.59 22.3027 34.59C22.5 34.59 22.6218 34.4856 24.2293 32.9071L25.9412 31.23L26.6492 31.7697C28.7615 33.383 31.9416 35.7739 32.1215 35.8783C32.3652 36.0292 32.9049 36.0408 33.1602 35.9073C33.3459 35.8087 33.6013 35.5533 33.6941 35.3734C33.7289 35.3096 34.7097 30.9167 35.8761 25.6185C37.3617 18.8637 38 15.8751 38 15.6371C38 15.2309 37.8607 14.906 37.588 14.6448C37.2514 14.3257 36.7291 14.1806 36.2997 14.285Z" fill="white"/>
</svg>
